<svg width="36" height="36" viewBox="0 0 36 36" fill="none" xmlns="http://www.w3.org/2000/svg">
<path fill-rule="evenodd" clip-rule="evenodd" d="M6.18359 9.25C6.18359 8.78587 6.36797 8.34075 6.69616 8.01256C7.02435 7.68437 7.46946 7.5 7.93359 7.5H28.9336C29.3977 7.5 29.8428 7.68437 30.171 8.01256C30.4992 8.34075 30.6836 8.78587 30.6836 9.25C30.6836 9.71413 30.4992 10.1592 30.171 10.4874C29.8428 10.8156 29.3977 11 28.9336 11H7.93359C7.46946 11 7.02435 10.8156 6.69616 10.4874C6.36797 10.1592 6.18359 9.71413 6.18359 9.25ZM6.18359 18C6.18359 17.5359 6.36797 17.0908 6.69616 16.7626C7.02435 16.4344 7.46946 16.25 7.93359 16.25H28.9336C29.3977 16.25 29.8428 16.4344 30.171 16.7626C30.4992 17.0908 30.6836 17.5359 30.6836 18C30.6836 18.4641 30.4992 18.9092 30.171 19.2374C29.8428 19.5656 29.3977 19.75 28.9336 19.75H7.93359C7.46946 19.75 7.02435 19.5656 6.69616 19.2374C6.36797 18.9092 6.18359 18.4641 6.18359 18ZM6.18359 26.75C6.18359 26.2859 6.36797 25.8408 6.69616 25.5126C7.02435 25.1844 7.46946 25 7.93359 25H18.4336C18.8977 25 19.3428 25.1844 19.671 25.5126C19.9992 25.8408 20.1836 26.2859 20.1836 26.75C20.1836 27.2141 19.9992 27.6592 19.671 27.9874C19.3428 28.3156 18.8977 28.5 18.4336 28.5H7.93359C7.46946 28.5 7.02435 28.3156 6.69616 27.9874C6.36797 27.6592 6.18359 27.2141 6.18359 26.75Z" fill="white"/>
</svg>
